<svg width="52" height="52" viewBox="0 0 52 52" fill="none" xmlns="http://www.w3.org/2000/svg">
<g clip-path="url(#clip0_279_1734)">
<rect width="52" height="52" fill="url(#paint0_linear_279_1734)"/>
<path opacity="0.7" d="M31.3786 10.9364C33.6069 13.1647 30.8372 19.5472 25.1922 25.1922C19.5472 30.8372 13.1647 33.6069 10.9364 31.3786C8.70818 29.1504 11.4779 22.7679 17.1229 17.1229C22.7679 11.4779 29.1504 8.70818 31.3786 10.9364Z" fill="url(#paint1_linear_279_1734)"/>
<path opacity="0.5" d="M36.2204 15.7782C38.4487 18.0065 35.6789 24.389 30.034 30.034C24.389 35.6789 18.0065 38.4487 15.7782 36.2204C13.55 33.9922 16.3197 27.6097 21.9647 21.9647C27.6097 16.3197 33.9922 13.55 36.2204 15.7782Z" fill="url(#paint2_linear_279_1734)"/>
<path opacity="0.3" d="M41.0622 20.62C43.2905 22.8483 40.5207 29.2308 34.8758 34.8758C29.2308 40.5207 22.8483 43.2905 20.62 41.0622C18.3918 38.834 21.1615 32.4515 26.8065 26.8065C32.4515 21.1615 38.834 18.3918 41.0622 20.62Z" fill="url(#paint3_linear_279_1734)"/>
</g>
<defs>
<linearGradient id="paint0_linear_279_1734" x1="26" y1="6.45717e-07" x2="28.1667" y2="52" gradientUnits="userSpaceOnUse">
<stop stop-color="white" stop-opacity="0"/>
<stop offset="1" stop-color="white" stop-opacity="0.12"/>
</linearGradient>
<linearGradient id="paint1_linear_279_1734" x1="21.1575" y1="10.166" x2="21.1575" y2="32.1491" gradientUnits="userSpaceOnUse">
<stop stop-opacity="0.8"/>
<stop offset="1" stop-opacity="0.5"/>
</linearGradient>
<linearGradient id="paint2_linear_279_1734" x1="25.9993" y1="15.0078" x2="25.9993" y2="36.9909" gradientUnits="userSpaceOnUse">
<stop stop-opacity="0.8"/>
<stop offset="1" stop-opacity="0.5"/>
</linearGradient>
<linearGradient id="paint3_linear_279_1734" x1="30.8411" y1="19.8496" x2="30.8411" y2="41.8327" gradientUnits="userSpaceOnUse">
<stop stop-opacity="0.8"/>
<stop offset="1" stop-opacity="0.5"/>
</linearGradient>
<clipPath id="clip0_279_1734">
<rect width="52" height="52" fill="white"/>
</clipPath>
</defs>
</svg>
