<svg width="52" height="52" viewBox="0 0 52 52" fill="none" xmlns="http://www.w3.org/2000/svg">
<g clip-path="url(#clip0_279_1739)">
<rect width="52" height="52" fill="url(#paint0_linear_279_1739)"/>
<g clip-path="url(#clip1_279_1739)">
<path d="M11.5219 23.1893L28.8795 40.5468C29.1328 40.8002 29.0106 41.2305 28.6584 41.2963C28.0711 41.406 27.472 41.4822 26.8631 41.5228C26.7331 41.5315 26.6061 41.4825 26.514 41.3904L10.6784 25.5548C10.5863 25.4627 10.5372 25.3357 10.5459 25.2057C10.5865 24.5968 10.6627 23.9977 10.7725 23.4103C10.8382 23.0581 11.2686 22.9359 11.5219 23.1893ZM11.0328 30.2173C10.917 29.7853 11.4273 29.5128 11.7436 29.829L22.2397 40.3252C22.556 40.6414 22.2835 41.1518 21.8515 41.0359C16.5885 39.6249 12.4439 35.4803 11.0328 30.2173ZM12.5541 18.5935C12.7015 18.3382 13.0498 18.2991 13.2583 18.5075L33.5612 38.8105C33.7697 39.0189 33.7306 39.3673 33.4753 39.5147C33.0457 39.7627 32.603 39.9904 32.1484 40.1966C31.9774 40.2742 31.7768 40.2351 31.6439 40.1022L11.9665 20.4248C11.8337 20.292 11.7946 20.0914 11.8722 19.9203C12.0783 19.4657 12.3061 19.023 12.5541 18.5935ZM25.8282 10.9238C34.2874 10.9238 41.1449 17.7814 41.1449 26.2406C41.1449 30.7313 39.2123 34.7706 36.1335 37.5722C35.9557 37.7339 35.683 37.7232 35.5131 37.5533L14.5154 16.5556C14.3455 16.3857 14.3348 16.113 14.4965 15.9353C17.2981 12.8564 21.3375 10.9238 25.8282 10.9238Z" fill="black"/>
</g>
</g>
<defs>
<linearGradient id="paint0_linear_279_1739" x1="26" y1="6.45717e-07" x2="28.1667" y2="52" gradientUnits="userSpaceOnUse">
<stop stop-color="white" stop-opacity="0"/>
<stop offset="1" stop-color="white" stop-opacity="0.12"/>
</linearGradient>
<clipPath id="clip0_279_1739">
<rect width="52" height="52" fill="white"/>
</clipPath>
<clipPath id="clip1_279_1739">
<rect width="30.6" height="30.6" fill="white" transform="translate(10.5449 10.9238)"/>
</clipPath>
</defs>
</svg>
