<svg width="52" height="52" viewBox="0 0 52 52" fill="none" xmlns="http://www.w3.org/2000/svg">
<g clip-path="url(#clip0_279_1730)">
<rect width="52" height="52" fill="url(#paint0_linear_279_1730)"/>
<path d="M46 15H31.7687C30.7561 15 29.7984 15.4674 29.1659 16.2703L27.8341 17.9605C27.2016 18.7634 26.2439 19.2308 25.2313 19.2308H12.6667L9.33333 23.4615H23.5646C24.5772 23.4615 25.5349 22.9942 26.1675 22.1913L27.4992 20.501C28.1318 19.6981 29.0895 19.2308 30.1021 19.2308H42.6667L46 15Z" fill="#6159E8"/>
<path d="M44.3333 21.7692H30.1021C29.0895 21.7692 28.1318 22.2366 27.4992 23.0395L26.1675 24.7297C25.5349 25.5326 24.5772 26 23.5646 26H11L7.66667 30.2308H21.8979C22.9105 30.2308 23.8682 29.7634 24.5008 28.9605L25.8325 27.2703C26.4651 26.4674 27.4228 26 28.4354 26H41L44.3333 21.7692Z" fill="#6159E8"/>
<path d="M42.6667 28.5385H28.4354C27.4228 28.5385 26.4651 29.0058 25.8325 29.8087L24.5008 31.499C23.8682 32.3019 22.9105 32.7692 21.8979 32.7692H9.33333L6 37H20.2313C21.2439 37 22.2016 36.5326 22.8341 35.7297L24.1659 34.0395C24.7984 33.2366 25.7561 32.7692 26.7687 32.7692H39.3333L42.6667 28.5385Z" fill="#6159E8"/>
</g>
<defs>
<linearGradient id="paint0_linear_279_1730" x1="26" y1="6.45717e-07" x2="28.1667" y2="52" gradientUnits="userSpaceOnUse">
<stop stop-color="white" stop-opacity="0"/>
<stop offset="1" stop-color="white" stop-opacity="0.12"/>
</linearGradient>
<clipPath id="clip0_279_1730">
<rect width="52" height="52" fill="white"/>
</clipPath>
</defs>
</svg>
