<svg width="52" height="52" viewBox="0 0 52 52" fill="none" xmlns="http://www.w3.org/2000/svg">
<g clip-path="url(#clip0_279_1724)">
<rect width="52" height="52" fill="url(#paint0_linear_279_1724)"/>
<path d="M20.5796 22.7424C24.7038 20.7699 27.9315 17.4227 29.7844 13.2386C28.5889 11.9834 27.0349 11.0868 25.3613 10.5489L24.4647 10.25C24.4049 10.3695 24.3452 10.5489 24.3452 10.6684C22.9106 14.7329 19.9818 18.0204 16.0369 19.8733C13.2874 21.1883 11.2552 23.5792 10.2989 26.4483L10 27.3449C10.1195 27.4046 10.2989 27.4644 10.4184 27.4644C11.5541 27.8828 12.6897 28.4208 13.7656 29.0783C15.2599 26.3885 17.6508 24.1172 20.5796 22.7424Z" fill="#389C74"/>
<path d="M37.9125 22.9824C35.7009 26.3297 32.6526 29.0194 28.887 30.8126C25.8386 32.2471 23.5076 34.9369 22.4317 38.1646L22.1328 39.1807C23.2685 40.1968 24.6432 40.9739 26.1375 41.4521L27.0341 41.7509C27.0938 41.6314 27.1536 41.4521 27.1536 41.3325C28.5881 37.268 31.5169 33.9805 35.4619 32.1276C38.2114 30.8126 40.3034 28.4217 41.1999 25.5526L41.4988 24.6561C40.2436 24.2974 39.0481 23.6997 37.9125 22.9824Z" fill="#389C74"/>
<path d="M19.7417 36.0713C21.236 32.485 23.9855 29.5562 27.512 27.8825C30.7397 26.3285 33.4294 23.9376 35.2823 21.0087C33.9076 19.6937 32.7719 18.1994 31.9351 16.4062C29.7236 20.4708 26.2568 23.7582 22.0131 25.7905C19.5624 26.9262 17.59 28.8987 16.3945 31.2896C17.7095 32.5448 18.7854 34.0988 19.6222 35.8322C19.6222 35.8322 19.682 35.9518 19.7417 36.0713Z" fill="#389C74"/>
</g>
<defs>
<linearGradient id="paint0_linear_279_1724" x1="26" y1="6.45717e-07" x2="28.1667" y2="52" gradientUnits="userSpaceOnUse">
<stop stop-color="white" stop-opacity="0"/>
<stop offset="1" stop-color="white" stop-opacity="0.12"/>
</linearGradient>
<clipPath id="clip0_279_1724">
<rect width="52" height="52" fill="white"/>
</clipPath>
</defs>
</svg>
