<svg width="20" height="20" viewBox="0 0 20 20" fill="none" xmlns="http://www.w3.org/2000/svg">
  <path d="M7.47266 2.83604C7.47266 2.47838 7.67108 2.15024 7.98783 1.9841L11.1188 0.341852C11.7594 0.00586948 12.5277 0.470464 12.5277 1.1938V6.56752C12.5277 6.92519 12.3293 7.25333 12.0125 7.41946L8.88153 9.06171C8.24096 9.3977 7.47266 8.9331 7.47266 8.20977V2.83604Z" fill="#525252"/>
  <path d="M0 6.09972C0 5.74205 0.198427 5.41391 0.515169 5.24777L3.64619 3.60552C4.28676 3.26954 5.05506 3.73414 5.05506 4.45747V12.4826C5.05506 12.8403 4.85664 13.1684 4.53989 13.3346L1.40887 14.9768C0.768305 15.3128 0 14.8482 0 14.1249V6.09972Z" fill="#525252"/>
  <path d="M14.9453 7.32237C14.9453 6.96471 15.1437 6.63656 15.4605 6.47043L18.5915 4.82818C19.2321 4.4922 20.0004 4.95679 20.0004 5.68012V13.5013C20.0004 13.859 19.8019 14.1871 19.4852 14.3533L16.3542 15.9955C15.7136 16.3315 14.9453 15.8669 14.9453 15.1436V7.32237Z" fill="#525252"/>
  <path d="M7.47266 13.0353C7.47266 12.6776 7.67108 12.3495 7.98783 12.1833L11.1188 10.5411C11.7594 10.2051 12.5277 10.6697 12.5277 11.393V16.7667C12.5277 17.1244 12.3293 17.4525 12.0125 17.6187L8.88153 19.2609C8.24096 19.5969 7.47266 19.1323 7.47266 18.409V13.0353Z" fill="#525252"/>
</svg>
