<svg width="87" height="18" viewBox="0 0 87 18" fill="none" xmlns="http://www.w3.org/2000/svg">
<path d="M0 6.5625H1.40625C3.13214 6.5625 4.53125 7.96161 4.53125 9.6875V15H4C1.79086 15 1.12747e-07 13.2091 0 11V6.5625ZM15 11C15 13.2091 13.2091 15 11 15H5.625V9.6875C5.625 7.96161 7.02411 6.5625 8.75 6.5625H15V11ZM4.53125 2.34375C4.53124 4.06964 3.13214 5.46875 1.40625 5.46875H0V4C0 1.79086 1.79086 1.12745e-07 4 0H4.53125V2.34375ZM11 0C13.2091 0 15 1.79086 15 4V5.46875H8.75C7.02411 5.46875 5.62501 4.06964 5.625 2.34375V0H11Z" fill="black"/>
<path d="M86.5306 11.1729C86.2776 11.9662 85.8177 12.6446 85.1508 13.208C84.484 13.7599 83.5411 14.0359 82.3224 14.0359C81.483 14.0359 80.7357 13.8404 80.0803 13.4495C79.4364 13.047 78.9362 12.4894 78.5798 11.7765C78.2234 11.0522 78.0452 10.2243 78.0452 9.29299C78.0452 8.35016 78.2176 7.51657 78.5626 6.7922C78.919 6.06784 79.4134 5.51019 80.0458 5.11926C80.6897 4.71684 81.4428 4.51562 82.3051 4.51562C83.1445 4.51562 83.8861 4.70534 84.53 5.08477C85.1853 5.4527 85.6912 5.98735 86.0477 6.68872C86.4156 7.37859 86.5996 8.20069 86.5996 9.15501C86.5996 9.39647 86.5938 9.58043 86.5823 9.70691H79.8216C79.8446 10.5577 80.0803 11.2534 80.5287 11.7938C80.9886 12.3342 81.5865 12.6044 82.3224 12.6044C83.0237 12.6044 83.5641 12.4434 83.9436 12.1215C84.323 11.788 84.5932 11.4028 84.7542 10.9659L86.5306 11.1729ZM82.3051 5.94711C81.5923 5.94711 81.0231 6.18281 80.5977 6.65423C80.1838 7.11414 79.9366 7.68328 79.8561 8.36166H84.8059C84.7254 7.67179 84.4725 7.09689 84.047 6.63698C83.6216 6.17707 83.041 5.94711 82.3051 5.94711Z" fill="black"/>
<path d="M77.4175 12.3112V13.8289C77.1646 13.8519 76.7334 13.8634 76.124 13.8634C75.2732 13.8634 74.6638 13.7254 74.2959 13.4495C73.9394 13.1735 73.7612 12.6446 73.7612 11.8628V6.05061H72.2607V4.7226H73.7612V2.15283H75.5204V4.7226H77.521V6.05061H75.5204V11.3971C75.5204 11.7995 75.5951 12.0582 75.7446 12.1732C75.8941 12.2882 76.1643 12.3457 76.5552 12.3457L77.4175 12.3112Z" fill="black"/>
<path d="M71.3568 13.829H69.5977V4.72266H71.3568V13.829ZM71.3568 3.25668H69.5977V1.34229H71.3568V3.25668Z" fill="black"/>
<path d="M66.6272 7.44758C66.5008 6.93018 66.2421 6.53925 65.8511 6.2748C65.4602 5.99885 65.0061 5.86087 64.4886 5.86087C63.9483 5.86087 63.5171 5.97585 63.1951 6.20581C62.8732 6.43577 62.7122 6.76346 62.7122 7.18888C62.7122 7.54531 62.856 7.80401 63.1434 7.96498C63.4423 8.12595 63.8908 8.25818 64.4886 8.36166L65.3855 8.49963C66.3513 8.6721 67.0987 8.94805 67.6276 9.32748C68.168 9.69541 68.4382 10.3163 68.4382 11.1901C68.4382 12.0985 68.076 12.7998 67.3516 13.2942C66.6387 13.7886 65.7132 14.0359 64.5749 14.0359C63.4481 14.0359 62.5283 13.7772 61.8154 13.2597C61.1025 12.7308 60.6656 12.041 60.5046 11.1901L62.1086 10.8452C62.2466 11.4776 62.5283 11.949 62.9537 12.2594C63.3906 12.5584 63.9425 12.7078 64.6094 12.7078C65.2188 12.7078 65.7074 12.5814 66.0754 12.3284C66.4433 12.064 66.6272 11.7018 66.6272 11.2419C66.6272 10.8624 66.4663 10.5807 66.1443 10.3968C65.8339 10.2128 65.3625 10.0691 64.7301 9.96561L63.7988 9.81039C62.9249 9.66092 62.2236 9.40222 61.6947 9.03428C61.1773 8.66635 60.9186 8.05697 60.9186 7.20612C60.9186 6.68872 61.068 6.22881 61.367 5.82638C61.6774 5.41246 62.1028 5.09052 62.6432 4.86056C63.1951 4.6306 63.816 4.51562 64.5059 4.51562C65.1498 4.51562 65.7419 4.63635 66.2823 4.87781C66.8227 5.10776 67.2596 5.42396 67.5931 5.82638C67.938 6.21731 68.1507 6.64273 68.2312 7.10264L66.6272 7.44758Z" fill="black"/>
<path d="M59.9856 12.3112V13.8289C59.7327 13.8519 59.3015 13.8634 58.6921 13.8634C57.8413 13.8634 57.2319 13.7254 56.864 13.4495C56.5075 13.1735 56.3293 12.6446 56.3293 11.8628V6.05061H54.8289V4.7226H56.3293V2.15283H58.0885V4.7226H60.0891V6.05061H58.0885V11.3971C58.0885 11.7995 58.1632 12.0582 58.3127 12.1732C58.4622 12.2882 58.7324 12.3457 59.1233 12.3457L59.9856 12.3112Z" fill="black"/>
<path d="M48.0626 1.34229V5.92993H48.1316C48.787 4.98711 49.7183 4.51569 50.9256 4.51569C51.489 4.51569 52.0122 4.63642 52.4951 4.87788C52.978 5.10783 53.3632 5.47002 53.6506 5.96442C53.9495 6.45883 54.099 7.06822 54.099 7.79258V13.829H52.3398V8.32723C52.3398 7.48789 52.1731 6.89 51.8397 6.53357C51.5062 6.17714 51.0003 5.99892 50.322 5.99892C49.9425 5.99892 49.5804 6.11965 49.2354 6.3611C48.8905 6.60256 48.6088 6.95324 48.3903 7.41316C48.1719 7.86157 48.0626 8.38472 48.0626 8.98261V13.829H46.3035V1.34229H48.0626Z" fill="black"/>
<path d="M43.2405 4.72259H44.9307V13.1908C44.9307 14.5705 44.5398 15.5823 43.7579 16.2262C42.9761 16.8816 41.947 17.2093 40.6708 17.2093C39.6474 17.2093 38.7679 16.9736 38.032 16.5021C37.3076 16.0307 36.8075 15.3064 36.5315 14.329L38.2217 13.9669C38.3942 14.6107 38.6816 15.0707 39.0841 15.3466C39.498 15.6226 40.0269 15.7605 40.6708 15.7605C42.3379 15.7605 43.1715 14.8752 43.1715 13.1045V12.1904H43.1026C42.8496 12.5469 42.4932 12.8286 42.0333 13.0355C41.5733 13.2425 41.0444 13.346 40.4466 13.346C39.6647 13.346 38.9633 13.162 38.3424 12.7941C37.7331 12.4262 37.2559 11.9087 36.911 11.2419C36.566 10.575 36.3936 9.80464 36.3936 8.9308C36.3936 8.06846 36.566 7.30386 36.911 6.63698C37.2559 5.95861 37.7331 5.43545 38.3424 5.06752C38.9633 4.69959 39.6647 4.51562 40.4466 4.51562C41.0674 4.51562 41.6193 4.6306 42.1022 4.86056C42.5852 5.07902 42.9473 5.38371 43.1888 5.77464H43.2405V4.72259ZM40.7397 11.949C41.5101 11.949 42.1252 11.673 42.5852 11.1211C43.0451 10.5692 43.275 9.83913 43.275 8.9308C43.275 8.03397 43.0451 7.31535 42.5852 6.77495C42.1252 6.22306 41.5101 5.94711 40.7397 5.94711C39.9694 5.94711 39.3485 6.22306 38.8771 6.77495C38.4172 7.31535 38.1872 8.03397 38.1872 8.9308C38.1872 9.82764 38.4172 10.5577 38.8771 11.1211C39.3485 11.673 39.9694 11.949 40.7397 11.949Z" fill="black"/>
<path d="M35.1789 13.829H33.4197V4.72266H35.1789V13.829ZM35.1789 3.25668H33.4197V1.34229H35.1789V3.25668Z" fill="black"/>
<path d="M32.3595 12.1909V13.8293H23.7361V1.51514H25.6332V12.1909H32.3595Z" fill="black"/>
</svg>
