<svg width="19" height="21" viewBox="0 0 18.8806 20.7486" fill="none" xmlns="http://www.w3.org/2000/svg">
  <path d="M7.05469 3.06045C7.05469 2.83603 7.17549 2.62899 7.37086 2.51857L10.8981 0.524932C11.313 0.290402 11.8268 0.590179 11.8268 1.06681V7.31368C11.8268 7.53809 11.706 7.74513 11.5106 7.85556L7.98341 9.84919C7.56847 10.0837 7.05469 9.78394 7.05469 9.30731V3.06045Z" fill="#191919"/>
  <path d="M0 6.37994C0 6.15553 0.120801 5.94849 0.316168 5.83806L3.84337 3.84443C4.25831 3.6099 4.7721 3.90967 4.7721 4.38631V13.3304C4.7721 13.5549 4.6513 13.7619 4.45593 13.8723L0.928726 15.866C0.513787 16.1005 0 15.8007 0 15.3241V6.37994Z" fill="#191919"/>
  <path d="M14.1085 7.62512C14.1085 7.40071 14.2293 7.19367 14.4247 7.08324L17.9519 5.08961C18.3668 4.85508 18.8806 5.15485 18.8806 5.63149V14.3681C18.8806 14.5926 18.7598 14.7996 18.5645 14.91L15.0373 16.9037C14.6223 17.1382 14.1085 16.8384 14.1085 16.3618V7.62512Z" fill="#191919"/>
  <path d="M7.05469 13.435C7.05469 13.2105 7.17549 13.0035 7.37086 12.8931L10.8981 10.8994C11.313 10.6649 11.8268 10.9647 11.8268 11.4413V17.6882C11.8268 17.9126 11.706 18.1196 11.5106 18.2301L7.98341 20.2237C7.56847 20.4582 7.05469 20.1585 7.05469 19.6818V13.435Z" fill="#191919"/>
</svg>
