<svg preserveAspectRatio="none" width="100%" height="100%" overflow="visible" style="display: block;" viewBox="0 0 15.6336 16" fill="none" xmlns="http://www.w3.org/2000/svg">
<g id="google-logo" clip-path="url(#clip0_0_8)">
<path id="Vector" d="M15.6262 8.14969C15.6262 7.49418 15.573 7.01583 15.4579 6.51977H7.97262V9.47843H12.3663C12.2778 10.2137 11.7994 11.321 10.7364 12.0651L10.7215 12.1641L13.0882 13.9976L13.2522 14.0139C14.7581 12.6232 15.6262 10.5769 15.6262 8.14969Z" fill="#4285F4"/>
<path id="Vector_2" d="M7.97262 15.945C10.1252 15.945 11.9323 15.2363 13.2522 14.0139L10.7364 12.065C10.0632 12.5345 9.15962 12.8623 7.97262 12.8623C5.86435 12.8623 4.07497 11.4716 3.43711 9.54932L3.34362 9.55726L0.882668 11.4618L0.850485 11.5513C2.16151 14.1556 4.85445 15.945 7.97262 15.945Z" fill="#34A853"/>
<path id="Vector_3" d="M3.43711 9.54931C3.2688 9.05325 3.1714 8.52171 3.1714 7.97252C3.1714 7.42327 3.2688 6.89179 3.42825 6.39573L3.4238 6.29008L0.932009 4.35493L0.850482 4.39371C0.310146 5.47444 0.000100638 6.68806 0.000100638 7.97252C0.000100638 9.25698 0.310146 10.4705 0.850482 11.5513L3.43711 9.54931Z" fill="#FBBC05"/>
<path id="Vector_4" d="M7.97262 3.08269C9.46966 3.08269 10.4795 3.72934 11.0553 4.26974L13.3053 2.07286C11.9235 0.788397 10.1252 0 7.97262 0C4.85445 0 2.16151 1.78937 0.850485 4.39371L3.42826 6.39573C4.07497 4.47347 5.86435 3.08269 7.97262 3.08269Z" fill="#EB4335"/>
</g>
<defs>
<clipPath id="clip0_0_8">
<rect width="15.6336" height="16" fill="white"/>
</clipPath>
</defs>
</svg>
