<svg width="120" height="24" viewBox="0 0 100 20" fill="none" xmlns="http://www.w3.org/2000/svg">
  <g fill="#0A0A0A"><path d="M6.8 2.95c0-.216.117-.416.305-.522l3.4-1.922a.6.6 0 0 1 .895.522V7.05a.6.6 0 0 1-.305.522l-3.4 1.922a.6.6 0 0 1-.895-.522V2.95Z"/><path d="M0 6.15c0-.216.116-.416.305-.522l3.4-1.922a.6.6 0 0 1 .895.522v8.622a.6.6 0 0 1-.305.522l-3.4 1.922A.6.6 0 0 1 0 14.772V6.15Z"/><path d="M13.6 7.35c0-.216.117-.415.305-.522l3.4-1.922a.6.6 0 0 1 .895.523v8.421a.6.6 0 0 1-.305.523l-3.4 1.921a.6.6 0 0 1-.895-.522V7.35Z"/><path d="M6.8 12.95c0-.216.117-.416.305-.522l3.4-1.922a.6.6 0 0 1 .895.522v6.022a.6.6 0 0 1-.305.522l-3.4 1.922a.6.6 0 0 1-.895-.522V12.95Z"/></g>
  <text x="27" y="16.4" fill="#0A0A0A" font-family="Inter,Arial,sans-serif" font-size="15.5" font-weight="650">Handout</text>
</svg>
