<svg width="20" height="20" viewBox="0 0 18.2 20" fill="none" xmlns="http://www.w3.org/2000/svg">
  <path d="M6.80029 2.95009C6.80029 2.73377 6.91674 2.53419 7.10506 2.42775L10.5051 0.506005C10.905 0.279931 11.4003 0.568898 11.4003 1.02834V7.04995C11.4003 7.26627 11.2839 7.46584 11.0955 7.57229L7.69553 9.49403C7.29556 9.72011 6.80029 9.43114 6.80029 8.97169V2.95009Z" fill="#0A0A0A"/>
  <path d="M0 6.15029C0 5.93396 0.116445 5.73439 0.304767 5.62795L3.70478 3.7062C4.10476 3.48013 4.60002 3.76909 4.60002 4.22854V12.8502C4.60002 13.0665 4.48357 13.2661 4.29525 13.3725L0.895239 15.2942C0.495263 15.5203 0 15.2313 0 14.7719V6.15029Z" fill="#0A0A0A"/>
  <path d="M13.6001 7.35048C13.6001 7.13416 13.7165 6.93458 13.9049 6.82814L17.3049 4.9064C17.7049 4.68032 18.2001 4.96929 18.2001 5.42873V13.8503C18.2001 14.0667 18.0837 14.2662 17.8953 14.3727L14.4953 16.2944C14.0954 16.5205 13.6001 16.2315 13.6001 15.7721V7.35048Z" fill="#0A0A0A"/>
  <path d="M6.80029 12.9501C6.80029 12.7338 6.91674 12.5342 7.10506 12.4278L10.5051 10.506C10.905 10.2799 11.4003 10.5689 11.4003 11.0283V17.0499C11.4003 17.2663 11.2839 17.4658 11.0955 17.5723L7.69553 19.494C7.29556 19.7201 6.80029 19.4311 6.80029 18.9717V12.9501Z" fill="#0A0A0A"/>
</svg>
